<svg xmlns="http://www.w3.org/2000/svg" xmlns:xlink="http://www.w3.org/1999/xlink" width="2000" zoomAndPan="magnify" viewBox="0 0 1500 1499.999933" height="2000" preserveAspectRatio="xMidYMid meet" version="1.0"><defs><clipPath id="ee7d0562cd"><path d="M 225.070312 214.585938 L 1274.929688 214.585938 L 1274.929688 1286 L 225.070312 1286 Z M 225.070312 214.585938 " clip-rule="nonzero"/></clipPath><clipPath id="bc859d8d41"><path d="M 750 214.585938 C 460.089844 214.585938 225.070312 454.296875 225.070312 750 C 225.070312 1045.703125 460.089844 1285.414062 750 1285.414062 C 1039.910156 1285.414062 1274.929688 1045.703125 1274.929688 750 C 1274.929688 454.296875 1039.910156 214.585938 750 214.585938 Z M 750 214.585938 " clip-rule="nonzero"/></clipPath><clipPath id="ec1afbaa5f"><path d="M 0.0703125 0.585938 L 1049.929688 0.585938 L 1049.929688 1071 L 0.0703125 1071 Z M 0.0703125 0.585938 " clip-rule="nonzero"/></clipPath><clipPath id="89fd38f895"><path d="M 525 0.585938 C 235.089844 0.585938 0.0703125 240.296875 0.0703125 536 C 0.0703125 831.703125 235.089844 1071.414062 525 1071.414062 C 814.910156 1071.414062 1049.929688 831.703125 1049.929688 536 C 1049.929688 240.296875 814.910156 0.585938 525 0.585938 Z M 525 0.585938 " clip-rule="nonzero"/></clipPath><clipPath id="f741bdcaa0"><rect x="0" width="1050" y="0" height="1072"/></clipPath><clipPath id="8375b9db64"><path d="M 346.242188 436.648438 L 842.050781 436.648438 L 842.050781 1112 L 346.242188 1112 Z M 346.242188 436.648438 " clip-rule="nonzero"/></clipPath><clipPath id="44b453e83a"><path d="M 594.144531 436.648438 C 457.230469 436.648438 346.242188 587.746094 346.242188 774.132812 C 346.242188 960.523438 457.230469 1111.621094 594.144531 1111.621094 C 731.0625 1111.621094 842.050781 960.523438 842.050781 774.132812 C 842.050781 587.746094 731.0625 436.648438 594.144531 436.648438 Z M 594.144531 436.648438 " clip-rule="nonzero"/></clipPath><clipPath id="6a19d579cb"><path d="M 0.242188 0.648438 L 496.050781 0.648438 L 496.050781 675.679688 L 0.242188 675.679688 Z M 0.242188 0.648438 " clip-rule="nonzero"/></clipPath><clipPath id="04826043b6"><path d="M 248.144531 0.648438 C 111.230469 0.648438 0.242188 151.746094 0.242188 338.132812 C 0.242188 524.523438 111.230469 675.621094 248.144531 675.621094 C 385.0625 675.621094 496.050781 524.523438 496.050781 338.132812 C 496.050781 151.746094 385.0625 0.648438 248.144531 0.648438 Z M 248.144531 0.648438 " clip-rule="nonzero"/></clipPath><clipPath id="7867861039"><rect x="0" width="497" y="0" height="676"/></clipPath><clipPath id="267cb6630f"><path d="M 651.898438 439.792969 L 1153.757812 439.792969 L 1153.757812 1112 L 651.898438 1112 Z M 651.898438 439.792969 " clip-rule="nonzero"/></clipPath><clipPath id="0e8d8b9c04"><path d="M 902.828125 439.792969 C 764.242188 439.792969 651.898438 590.1875 651.898438 775.707031 C 651.898438 961.226562 764.242188 1111.621094 902.828125 1111.621094 C 1041.414062 1111.621094 1153.757812 961.226562 1153.757812 775.707031 C 1153.757812 590.1875 1041.414062 439.792969 902.828125 439.792969 Z M 902.828125 439.792969 " clip-rule="nonzero"/></clipPath><clipPath id="ff210c156d"><path d="M 0.898438 0.792969 L 502.757812 0.792969 L 502.757812 672.679688 L 0.898438 672.679688 Z M 0.898438 0.792969 " clip-rule="nonzero"/></clipPath><clipPath id="2c569b1b35"><path d="M 251.828125 0.792969 C 113.242188 0.792969 0.898438 151.1875 0.898438 336.707031 C 0.898438 522.226562 113.242188 672.621094 251.828125 672.621094 C 390.414062 672.621094 502.757812 522.226562 502.757812 336.707031 C 502.757812 151.1875 390.414062 0.792969 251.828125 0.792969 Z M 251.828125 0.792969 " clip-rule="nonzero"/></clipPath><clipPath id="734f7bbb39"><rect x="0" width="503" y="0" height="673"/></clipPath><clipPath id="0af34aabef"><path d="M 346.238281 394.984375 L 1153.988281 394.984375 L 1153.988281 1221 L 346.238281 1221 Z M 346.238281 394.984375 " clip-rule="nonzero"/></clipPath><clipPath id="9275b702bb"><path d="M 256 579 L 633 579 L 633 941 L 256 941 Z M 256 579 " clip-rule="nonzero"/></clipPath><clipPath id="8958a547a6"><path d="M 256.554688 815.894531 L 405.847656 495.742188 L 672.300781 619.992188 L 523.011719 940.144531 Z M 256.554688 815.894531 " clip-rule="nonzero"/></clipPath><clipPath id="45b43ae4d1"><path d="M 3.609375 1196.570312 L 344.027344 466.539062 L 672.335938 619.632812 L 331.917969 1349.664062 Z M 3.609375 1196.570312 " clip-rule="nonzero"/></clipPath><clipPath id="8ecbaf27b6"><path d="M 660 660 L 840 660 L 840 802 L 660 802 Z M 660 660 " clip-rule="nonzero"/></clipPath><clipPath id="8b0120147c"><path d="M 658.644531 778.375 L 841 778.375 L 841 845.75 L 658.644531 845.75 Z M 658.644531 778.375 " clip-rule="nonzero"/></clipPath><clipPath id="a3f7f72b53"><path d="M 773.074219 845.75 L 726.636719 845.75 C 707.6875 845.75 689.785156 837.074219 678.039062 822.207031 L 662.011719 801.914062 C 658.558594 797.542969 657.90625 791.585938 660.335938 786.570312 C 662.765625 781.558594 667.84375 778.375 673.414062 778.375 L 826.292969 778.375 C 831.863281 778.375 836.945312 781.558594 839.371094 786.570312 C 841.800781 791.585938 841.152344 797.542969 837.699219 801.914062 L 821.667969 822.207031 C 809.925781 837.074219 792.019531 845.75 773.074219 845.75 Z M 773.074219 845.75 " clip-rule="nonzero"/></clipPath><clipPath id="29d826e545"><path d="M 0.644531 0.375 L 183 0.375 L 183 67.75 L 0.644531 67.75 Z M 0.644531 0.375 " clip-rule="nonzero"/></clipPath><clipPath id="9bba5e4202"><path d="M 115.074219 67.75 L 68.636719 67.75 C 49.6875 67.75 31.785156 59.074219 20.039062 44.207031 L 4.011719 23.914062 C 0.558594 19.542969 -0.09375 13.585938 2.335938 8.570312 C 4.765625 3.558594 9.84375 0.375 15.414062 0.375 L 168.292969 0.375 C 173.863281 0.375 178.945312 3.558594 181.371094 8.570312 C 183.800781 13.585938 183.152344 19.542969 179.699219 23.914062 L 163.667969 44.207031 C 151.925781 59.074219 134.019531 67.75 115.074219 67.75 Z M 115.074219 67.75 " clip-rule="nonzero"/></clipPath><clipPath id="7d7832da13"><rect x="0" width="183" y="0" height="68"/></clipPath><clipPath id="7acf0af854"><path d="M 827 490 L 1263 490 L 1263 946 L 827 946 Z M 827 490 " clip-rule="nonzero"/></clipPath><clipPath id="26afc13284"><path d="M 978.988281 945.246094 L 827.285156 619.597656 L 1110.78125 487.53125 L 1262.484375 813.175781 Z M 978.988281 945.246094 " clip-rule="nonzero"/></clipPath><clipPath id="50305ec8c7"><path d="M 39 89 L 435.640625 89 L 435.640625 455.359375 L 39 455.359375 Z M 39 89 " clip-rule="nonzero"/></clipPath><clipPath id="e5cbae3c94"><path d="M 151.988281 455.246094 L 0.285156 129.597656 L 283.78125 -2.46875 L 435.484375 323.175781 Z M 151.988281 455.246094 " clip-rule="nonzero"/></clipPath><clipPath id="6b23ff87d0"><path d="M 668.976562 706.710938 L 328.832031 -23.445312 L 0.460938 129.523438 L 340.605469 859.683594 Z M 668.976562 706.710938 " clip-rule="nonzero"/></clipPath><clipPath id="3c712e37e2"><rect x="0" width="436" y="0" height="456"/></clipPath><clipPath id="d1f5fb6986"><path d="M 515.613281 614.984375 L 594.144531 614.984375 L 594.144531 693.515625 L 515.613281 693.515625 Z M 515.613281 614.984375 " clip-rule="nonzero"/></clipPath><clipPath id="d3916c61b1"><path d="M 554.878906 614.984375 C 533.195312 614.984375 515.613281 632.5625 515.613281 654.25 C 515.613281 675.933594 533.195312 693.515625 554.878906 693.515625 C 576.566406 693.515625 594.144531 675.933594 594.144531 654.25 C 594.144531 632.5625 576.566406 614.984375 554.878906 614.984375 Z M 554.878906 614.984375 " clip-rule="nonzero"/></clipPath><clipPath id="bef101bb40"><path d="M 0.613281 0.984375 L 79.144531 0.984375 L 79.144531 79.515625 L 0.613281 79.515625 Z M 0.613281 0.984375 " clip-rule="nonzero"/></clipPath><clipPath id="fe81d473ae"><path d="M 39.878906 0.984375 C 18.195312 0.984375 0.613281 18.5625 0.613281 40.25 C 0.613281 61.933594 18.195312 79.515625 39.878906 79.515625 C 61.566406 79.515625 79.144531 61.933594 79.144531 40.25 C 79.144531 18.5625 61.566406 0.984375 39.878906 0.984375 Z M 39.878906 0.984375 " clip-rule="nonzero"/></clipPath><clipPath id="32a85c5f53"><rect x="0" width="80" y="0" height="80"/></clipPath><clipPath id="681e2ac7f9"><path d="M 905.851562 614.984375 L 984.382812 614.984375 L 984.382812 693.515625 L 905.851562 693.515625 Z M 905.851562 614.984375 " clip-rule="nonzero"/></clipPath><clipPath id="82a9c215ba"><path d="M 945.117188 614.984375 C 923.433594 614.984375 905.851562 632.5625 905.851562 654.25 C 905.851562 675.933594 923.433594 693.515625 945.117188 693.515625 C 966.804688 693.515625 984.382812 675.933594 984.382812 654.25 C 984.382812 632.5625 966.804688 614.984375 945.117188 614.984375 Z M 945.117188 614.984375 " clip-rule="nonzero"/></clipPath><clipPath id="fc6a4ea4d8"><path d="M 0.851562 0.984375 L 79.382812 0.984375 L 79.382812 79.515625 L 0.851562 79.515625 Z M 0.851562 0.984375 " clip-rule="nonzero"/></clipPath><clipPath id="355d18f62a"><path d="M 40.117188 0.984375 C 18.433594 0.984375 0.851562 18.5625 0.851562 40.25 C 0.851562 61.933594 18.433594 79.515625 40.117188 79.515625 C 61.804688 79.515625 79.382812 61.933594 79.382812 40.25 C 79.382812 18.5625 61.804688 0.984375 40.117188 0.984375 Z M 40.117188 0.984375 " clip-rule="nonzero"/></clipPath><clipPath id="1bac5b0673"><rect x="0" width="80" y="0" height="80"/></clipPath><clipPath id="164f384afa"><path d="M 891 1002 L 1134 1002 L 1134 1257 L 891 1257 Z M 891 1002 " clip-rule="nonzero"/></clipPath><clipPath id="017f629281"><path d="M 851.074219 1078.640625 L 1019.078125 961.890625 L 1163.191406 1169.269531 L 995.1875 1286.019531 Z M 851.074219 1078.640625 " clip-rule="nonzero"/></clipPath><clipPath id="328981abf9"><path d="M 910.476562 1044.554688 C 917.027344 1035.65625 925.511719 1026.910156 935.121094 1020.234375 C 944.734375 1013.554688 955.125 1008.777344 965.683594 1005.78125 C 965.929688 1005.746094 966.109375 1005.621094 966.355469 1005.585938 C 1006.503906 995.0625 1051.574219 1009.621094 1077.152344 1045.460938 L 1119.972656 1107.074219 C 1143.609375 1141.089844 1135.195312 1187.828125 1101.183594 1211.464844 L 1056.324219 1242.636719 C 1022.328125 1266.261719 975.617188 1257.855469 951.992188 1223.855469 L 909.214844 1162.300781 C 884.351562 1125.554688 886.0625 1078.488281 910.476562 1044.554688 Z M 910.476562 1044.554688 " clip-rule="nonzero"/></clipPath><clipPath id="184fc5adf3"><path d="M 0 0 L 243 0 L 243 255 L 0 255 Z M 0 0 " clip-rule="nonzero"/></clipPath><clipPath id="9fa5ecc41e"><path d="M -39.925781 76.640625 L 128.078125 -40.109375 L 272.191406 167.269531 L 104.1875 284.019531 Z M -39.925781 76.640625 " clip-rule="nonzero"/></clipPath><clipPath id="6263fa3dd8"><path d="M 19.476562 42.554688 C 26.027344 33.65625 34.511719 24.910156 44.121094 18.234375 C 53.734375 11.554688 64.125 6.777344 74.683594 3.78125 C 74.929688 3.746094 75.109375 3.621094 75.355469 3.585938 C 115.503906 -6.9375 160.574219 7.621094 186.152344 43.460938 L 228.972656 105.074219 C 252.609375 139.089844 244.195312 185.828125 210.183594 209.464844 L 165.324219 240.636719 C 131.328125 264.261719 84.617188 255.855469 60.992188 221.855469 L 18.214844 160.300781 C -6.648438 123.554688 -4.9375 76.488281 19.476562 42.554688 Z M 19.476562 42.554688 " clip-rule="nonzero"/></clipPath><clipPath id="70f3c531c7"><rect x="0" width="243" y="0" height="255"/></clipPath><clipPath id="b184aab798"><path d="M 263 912 L 513 912 L 513 1162 L 263 1162 Z M 263 912 " clip-rule="nonzero"/></clipPath><clipPath id="f78bb7e6ad"><path d="M 410.210938 870.035156 L 554.875 1014.699219 L 376.304688 1193.269531 L 231.640625 1048.605469 Z M 410.210938 870.035156 " clip-rule="nonzero"/></clipPath><clipPath id="2a898eb723"><path d="M 454.28125 922.460938 C 464.195312 927.328125 474.308594 934.128906 482.582031 942.40625 C 490.859375 950.679688 497.402344 960.0625 502.21875 969.921875 C 502.296875 970.160156 502.453125 970.316406 502.53125 970.550781 C 520 1008.199219 513.660156 1055.136719 482.917969 1086.660156 L 429.859375 1139.714844 C 400.570312 1169.003906 353.085938 1169.003906 323.792969 1139.714844 L 285.167969 1101.089844 C 255.894531 1071.8125 255.894531 1024.351562 285.167969 995.078125 L 338.171875 942.074219 C 369.933594 911.09375 416.558594 904.441406 454.28125 922.460938 Z M 454.28125 922.460938 " clip-rule="nonzero"/></clipPath><clipPath id="ed949dfc7d"><path d="M 0 0 L 250 0 L 250 250 L 0 250 Z M 0 0 " clip-rule="nonzero"/></clipPath><clipPath id="72a5064ee7"><path d="M 147.210938 -41.964844 L 291.875 102.699219 L 113.304688 281.269531 L -31.359375 136.605469 Z M 147.210938 -41.964844 " clip-rule="nonzero"/></clipPath><clipPath id="533c1ffec8"><path d="M 191.28125 10.460938 C 201.195312 15.328125 211.308594 22.128906 219.582031 30.40625 C 227.859375 38.679688 234.402344 48.0625 239.21875 57.921875 C 239.296875 58.160156 239.453125 58.316406 239.53125 58.550781 C 257 96.199219 250.660156 143.136719 219.917969 174.660156 L 166.859375 227.714844 C 137.570312 257.003906 90.085938 257.003906 60.792969 227.714844 L 22.167969 189.089844 C -7.105469 159.8125 -7.105469 112.351562 22.167969 83.078125 L 75.171875 30.074219 C 106.933594 -0.90625 153.558594 -7.558594 191.28125 10.460938 Z M 191.28125 10.460938 " clip-rule="nonzero"/></clipPath><clipPath id="a3b30a77a2"><rect x="0" width="250" y="0" height="250"/></clipPath><clipPath id="c95a3b2931"><path d="M 373 871 L 555 871 L 555 1053 L 373 1053 Z M 373 871 " clip-rule="nonzero"/></clipPath><clipPath id="28aea8fd47"><path d="M 516.621094 1052.972656 L 372.996094 909.34375 L 423.363281 858.976562 L 566.992188 1002.601562 Z M 516.621094 1052.972656 " clip-rule="nonzero"/></clipPath><clipPath id="8196b30088"><path d="M 373.066406 909.414062 L 410.847656 871.632812 C 422.808594 883.597656 435.398438 871.007812 447.359375 882.972656 C 459.328125 894.9375 446.738281 907.527344 458.703125 919.488281 C 470.664062 931.453125 483.253906 918.863281 495.214844 930.828125 C 507.179688 942.792969 494.59375 955.378906 506.554688 967.339844 C 518.519531 979.304688 531.105469 966.71875 543.066406 978.675781 C 555.027344 990.640625 542.441406 1003.226562 554.402344 1015.191406 L 516.621094 1052.972656 C 504.660156 1041.007812 517.246094 1028.421875 505.285156 1016.457031 C 493.324219 1004.5 480.738281 1017.085938 468.773438 1005.121094 C 456.8125 993.160156 469.398438 980.574219 457.433594 968.609375 C 445.472656 956.644531 432.882812 969.234375 420.921875 957.269531 C 408.957031 945.308594 421.546875 932.71875 409.578125 920.753906 C 397.617188 908.789062 385.027344 921.378906 373.066406 909.414062 Z M 373.066406 909.414062 " clip-rule="nonzero"/></clipPath><clipPath id="68eb207312"><path d="M 0 0 L 182 0 L 182 182 L 0 182 Z M 0 0 " clip-rule="nonzero"/></clipPath><clipPath id="6458dae432"><path d="M 143.621094 181.972656 L -0.00390625 38.34375 L 50.363281 -12.023438 L 193.992188 131.601562 Z M 143.621094 181.972656 " clip-rule="nonzero"/></clipPath><clipPath id="0ef566ec44"><path d="M 0.0664062 38.414062 L 37.847656 0.632812 C 49.808594 12.597656 62.398438 0.0078125 74.359375 11.972656 C 86.328125 23.9375 73.738281 36.527344 85.703125 48.488281 C 97.664062 60.453125 110.253906 47.863281 122.214844 59.828125 C 134.179688 71.792969 121.59375 84.378906 133.554688 96.339844 C 145.519531 108.304688 158.105469 95.71875 170.066406 107.675781 C 182.027344 119.640625 169.441406 132.226562 181.402344 144.191406 L 143.621094 181.972656 C 131.660156 170.007812 144.246094 157.421875 132.285156 145.457031 C 120.324219 133.5 107.738281 146.085938 95.773438 134.121094 C 83.8125 122.160156 96.398438 109.574219 84.433594 97.609375 C 72.472656 85.644531 59.882812 98.234375 47.921875 86.269531 C 35.957031 74.308594 48.546875 61.71875 36.578125 49.753906 C 24.617188 37.789062 12.027344 50.378906 0.0664062 38.414062 Z M 0.0664062 38.414062 " clip-rule="nonzero"/></clipPath><clipPath id="94a5055b35"><rect x="0" width="182" y="0" height="182"/></clipPath><clipPath id="5146402746"><path d="M 854 961 L 1035 961 L 1035 1111 L 854 1111 Z M 854 961 " clip-rule="nonzero"/></clipPath><clipPath id="5f9aa90986"><path d="M 1034.496094 1001.824219 L 882.664062 1110.722656 L 844.472656 1057.476562 L 996.308594 948.578125 Z M 1034.496094 1001.824219 " clip-rule="nonzero"/></clipPath><clipPath id="c66124ab1c"><path d="M 882.738281 1110.667969 L 854.09375 1070.730469 C 866.738281 1061.660156 857.195312 1048.351562 869.84375 1039.28125 C 882.492188 1030.207031 892.035156 1043.515625 904.683594 1034.445312 C 917.328125 1025.375 907.785156 1012.066406 920.433594 1002.996094 C 933.078125 993.925781 942.621094 1007.234375 955.269531 998.164062 C 967.914062 989.09375 958.371094 975.785156 971.015625 966.71875 C 983.660156 957.648438 993.203125 970.953125 1005.851562 961.882812 L 1034.496094 1001.824219 C 1021.851562 1010.894531 1012.308594 997.585938 999.660156 1006.65625 C 987.019531 1015.726562 996.5625 1029.03125 983.914062 1038.101562 C 971.269531 1047.171875 961.722656 1033.867188 949.078125 1042.9375 C 936.429688 1052.007812 945.976562 1065.3125 933.328125 1074.382812 C 920.683594 1083.453125 911.136719 1070.148438 898.488281 1079.222656 C 885.839844 1088.292969 895.386719 1101.597656 882.738281 1110.667969 Z M 882.738281 1110.667969 " clip-rule="nonzero"/></clipPath><clipPath id="0457233e7d"><path d="M 0 0 L 180.640625 0 L 180.640625 149.71875 L 0 149.71875 Z M 0 0 " clip-rule="nonzero"/></clipPath><clipPath id="d16709f2a3"><path d="M 180.496094 40.824219 L 28.664062 149.722656 L -9.527344 96.476562 L 142.308594 -12.421875 Z M 180.496094 40.824219 " clip-rule="nonzero"/></clipPath><clipPath id="c4487f86c8"><path d="M 28.738281 149.667969 L 0.09375 109.730469 C 12.738281 100.660156 3.195312 87.351562 15.84375 78.28125 C 28.492188 69.207031 38.035156 82.515625 50.683594 73.445312 C 63.328125 64.375 53.785156 51.066406 66.433594 41.996094 C 79.078125 32.925781 88.621094 46.234375 101.269531 37.164062 C 113.914062 28.09375 104.371094 14.785156 117.015625 5.71875 C 129.660156 -3.351562 139.203125 9.953125 151.851562 0.882812 L 180.496094 40.824219 C 167.851562 49.894531 158.308594 36.585938 145.660156 45.65625 C 133.019531 54.726562 142.5625 68.03125 129.914062 77.101562 C 117.269531 86.171875 107.722656 72.867188 95.078125 81.9375 C 82.429688 91.007812 91.976562 104.3125 79.328125 113.382812 C 66.683594 122.453125 57.136719 109.148438 44.488281 118.222656 C 31.839844 127.292969 41.386719 140.597656 28.738281 149.667969 Z M 28.738281 149.667969 " clip-rule="nonzero"/></clipPath><clipPath id="6887f3754e"><rect x="0" width="181" y="0" height="150"/></clipPath></defs><rect x="-150" width="1800" fill="#ffffff" y="-149.999993" height="1799.99992" fill-opacity="1"/><rect x="-150" width="1800" fill="#ffffff" y="-149.999993" height="1799.99992" fill-opacity="1"/><g clip-path="url(#ee7d0562cd)"><g clip-path="url(#bc859d8d41)"><g transform="matrix(1, 0, 0, 1, 225, 214)"><g clip-path="url(#f741bdcaa0)"><g clip-path="url(#ec1afbaa5f)"><g clip-path="url(#89fd38f895)"><path fill="#ff751f" d="M 0.0703125 0.585938 L 1049.929688 0.585938 L 1049.929688 1070.953125 L 0.0703125 1070.953125 Z M 0.0703125 0.585938 " fill-opacity="1" fill-rule="nonzero"/></g></g></g></g></g></g><g clip-path="url(#8375b9db64)"><g clip-path="url(#44b453e83a)"><g transform="matrix(1, 0, 0, 1, 346, 436)"><g clip-path="url(#7867861039)"><g clip-path="url(#6a19d579cb)"><g clip-path="url(#04826043b6)"><path fill="#ffffff" d="M 0.242188 0.648438 L 496.050781 0.648438 L 496.050781 676.578125 L 0.242188 676.578125 Z M 0.242188 0.648438 " fill-opacity="1" fill-rule="nonzero"/></g></g></g></g></g></g><g clip-path="url(#267cb6630f)"><g clip-path="url(#0e8d8b9c04)"><g transform="matrix(1, 0, 0, 1, 651, 439)"><g clip-path="url(#734f7bbb39)"><g clip-path="url(#ff210c156d)"><g clip-path="url(#2c569b1b35)"><path fill="#ffffff" d="M 0.898438 0.792969 L 502.757812 0.792969 L 502.757812 673.210938 L 0.898438 673.210938 Z M 0.898438 0.792969 " fill-opacity="1" fill-rule="nonzero"/></g></g></g></g></g></g><g clip-path="url(#0af34aabef)"><path fill="#ff751f" d="M 1217.253906 364.949219 C 1273.300781 452.125 1303.710938 553.292969 1305.019531 656.914062 C 1309.34375 963.539062 1057.160156 1220.035156 750.53125 1220.738281 C 442.929688 1221.445312 193.375 972.335938 193.375 664.90625 C 193.207031 558.585938 223.683594 454.460938 281.160156 365.007812 C 287.015625 355.890625 301.03125 362.472656 297.933594 372.832031 C 284.453125 417.332031 277.617188 463.566406 277.660156 510.066406 C 277.660156 771.773438 490.792969 983.707031 752.914062 981.59375 C 1013.566406 979.367188 1223.050781 766.261719 1220.820312 505.613281 C 1220.4375 460.574219 1213.605469 415.824219 1200.539062 372.722656 C 1197.410156 362.4375 1211.421875 355.949219 1217.253906 364.949219 " fill-opacity="1" fill-rule="nonzero"/></g><g clip-path="url(#9275b702bb)"><g clip-path="url(#8958a547a6)"><g clip-path="url(#45b43ae4d1)"><path fill="#ff751f" d="M 624.253906 707.859375 C 623.003906 710.503906 621.628906 713.078125 620.128906 715.585938 C 618.628906 718.097656 617.011719 720.527344 615.277344 722.878906 C 613.539062 725.230469 611.695312 727.492188 609.738281 729.664062 C 607.78125 731.835938 605.726562 733.910156 603.566406 735.882812 C 601.410156 737.855469 599.160156 739.714844 596.820312 741.46875 C 594.484375 743.222656 592.066406 744.859375 589.566406 746.378906 C 587.070312 747.894531 584.503906 749.289062 581.871094 750.558594 C 579.234375 751.828125 576.546875 752.964844 573.800781 753.972656 C 568.597656 755.878906 563.445312 757.914062 558.339844 760.074219 C 553.238281 762.230469 548.191406 764.515625 543.199219 766.921875 C 538.207031 769.328125 533.277344 771.855469 528.40625 774.503906 C 523.539062 777.152344 518.738281 779.917969 514.003906 782.800781 C 509.273438 785.6875 504.613281 788.683594 500.027344 791.792969 C 495.441406 794.90625 490.933594 798.128906 486.503906 801.460938 C 482.074219 804.792969 477.730469 808.230469 473.472656 811.773438 C 469.210938 815.320312 465.039062 818.964844 460.957031 822.714844 C 456.875 826.464844 452.890625 830.3125 448.996094 834.253906 C 445.101562 838.199219 441.308594 842.234375 437.613281 846.367188 C 433.914062 850.496094 430.324219 854.714844 426.835938 859.019531 C 423.34375 863.324219 419.960938 867.714844 416.6875 872.183594 C 413.414062 876.65625 410.25 881.203125 407.199219 885.832031 C 404.148438 890.457031 401.210938 895.15625 398.386719 899.925781 C 395.566406 904.695312 392.863281 909.53125 390.277344 914.433594 C 387.691406 919.335938 385.230469 924.296875 382.886719 929.320312 C 380.542969 934.34375 378.328125 939.421875 376.234375 944.550781 C 374.140625 949.683594 372.171875 954.863281 370.332031 960.089844 C 368.492188 965.316406 366.78125 970.585938 365.199219 975.898438 C 363.617188 981.210938 362.167969 986.558594 360.847656 991.9375 C 359.523438 997.320312 358.335938 1002.734375 357.28125 1008.175781 C 356.226562 1013.613281 355.304688 1019.078125 354.515625 1024.5625 C 353.730469 1030.050781 353.074219 1035.550781 352.554688 1041.070312 C 352.039062 1046.585938 351.65625 1052.113281 351.40625 1057.648438 C 351.15625 1063.1875 351.046875 1068.726562 351.070312 1074.269531 C 351.089844 1079.808594 351.25 1085.347656 351.542969 1090.882812 C 351.839844 1096.417969 352.269531 1101.941406 352.832031 1107.453125 C 353.398438 1112.964844 354.097656 1118.460938 354.929688 1123.941406 C 355.761719 1129.421875 356.730469 1134.875 357.832031 1140.308594 C 358.929688 1145.738281 360.164062 1151.140625 361.527344 1156.511719 C 362.894531 1161.882812 364.390625 1167.21875 366.015625 1172.515625 C 367.640625 1177.8125 369.398438 1183.070312 371.28125 1188.28125 C 371.8125 1189.675781 372.304688 1191.082031 372.765625 1192.5 C 373.226562 1193.921875 373.652344 1195.351562 374.042969 1196.789062 C 374.429688 1198.230469 374.785156 1199.679688 375.101562 1201.136719 C 375.417969 1202.59375 375.699219 1204.058594 375.945312 1205.527344 C 376.191406 1207 376.398438 1208.476562 376.570312 1209.957031 C 376.742188 1211.441406 376.875 1212.925781 376.972656 1214.414062 C 377.070312 1215.902344 377.132812 1217.394531 377.15625 1218.882812 C 377.179688 1220.375 377.167969 1221.867188 377.117188 1223.359375 C 377.066406 1224.847656 376.980469 1226.335938 376.855469 1227.824219 C 376.730469 1229.308594 376.570312 1230.792969 376.375 1232.269531 C 376.175781 1233.75 375.941406 1235.222656 375.671875 1236.691406 C 375.402344 1238.15625 375.09375 1239.617188 374.75 1241.066406 C 374.40625 1242.519531 374.027344 1243.960938 373.613281 1245.394531 C 373.199219 1246.828125 372.75 1248.25 372.265625 1249.660156 C 371.777344 1251.070312 371.257812 1252.46875 370.703125 1253.851562 C 370.148438 1255.238281 369.5625 1256.605469 368.9375 1257.960938 C 368.316406 1259.316406 367.660156 1260.65625 366.96875 1261.980469 C 366.28125 1263.304688 365.558594 1264.609375 364.804688 1265.894531 C 364.050781 1267.183594 363.265625 1268.449219 362.449219 1269.699219 C 361.632812 1270.945312 360.785156 1272.175781 359.910156 1273.378906 C 359.03125 1274.585938 358.125 1275.769531 357.1875 1276.929688 C 356.25 1278.09375 355.285156 1279.230469 354.292969 1280.34375 C 353.300781 1281.457031 352.28125 1282.542969 351.234375 1283.605469 C 350.1875 1284.667969 349.113281 1285.703125 348.015625 1286.714844 C 346.917969 1287.722656 345.792969 1288.703125 344.648438 1289.660156 C 343.5 1290.613281 342.332031 1291.535156 341.136719 1292.433594 C 339.945312 1293.328125 338.730469 1294.195312 337.496094 1295.027344 C 336.257812 1295.863281 335.003906 1296.667969 333.726562 1297.441406 C 332.453125 1298.214844 331.15625 1298.953125 329.84375 1299.664062 C 328.53125 1300.371094 327.203125 1301.046875 325.855469 1301.691406 C 324.511719 1302.332031 323.148438 1302.941406 321.773438 1303.519531 C 320.398438 1304.09375 319.007812 1304.632812 317.605469 1305.140625 C 316.199219 1305.644531 314.785156 1306.117188 313.359375 1306.554688 C 311.933594 1306.988281 310.496094 1307.390625 309.050781 1307.753906 C 307.601562 1308.117188 306.148438 1308.449219 304.6875 1308.738281 C 303.222656 1309.03125 301.753906 1309.289062 300.277344 1309.507812 C 298.804688 1309.726562 297.324219 1309.910156 295.839844 1310.058594 C 294.355469 1310.203125 292.867188 1310.3125 291.378906 1310.382812 C 289.886719 1310.457031 288.398438 1310.492188 286.90625 1310.492188 C 285.414062 1310.488281 283.921875 1310.449219 282.433594 1310.375 C 280.941406 1310.296875 279.457031 1310.1875 277.972656 1310.035156 C 276.488281 1309.886719 275.007812 1309.699219 273.535156 1309.476562 C 272.058594 1309.253906 270.589844 1308.996094 269.128906 1308.699219 C 267.664062 1308.402344 266.210938 1308.074219 264.765625 1307.703125 C 263.320312 1307.335938 261.886719 1306.933594 260.460938 1306.492188 C 259.035156 1306.054688 257.621094 1305.582031 256.21875 1305.070312 C 254.816406 1304.5625 253.429688 1304.019531 252.054688 1303.4375 C 250.679688 1302.859375 249.316406 1302.25 247.972656 1301.601562 C 246.628906 1300.957031 245.300781 1300.277344 243.988281 1299.566406 C 242.679688 1298.855469 241.386719 1298.113281 240.113281 1297.335938 C 238.839844 1296.558594 237.585938 1295.753906 236.351562 1294.914062 C 235.117188 1294.078125 233.902344 1293.207031 232.714844 1292.308594 C 231.523438 1291.410156 230.355469 1290.484375 229.210938 1289.527344 C 228.066406 1288.574219 226.945312 1287.589844 225.847656 1286.578125 C 224.753906 1285.566406 223.683594 1284.527344 222.636719 1283.460938 C 221.59375 1282.394531 220.574219 1281.304688 219.585938 1280.191406 C 218.59375 1279.074219 217.632812 1277.9375 216.699219 1276.773438 C 215.765625 1275.609375 214.859375 1274.421875 213.984375 1273.214844 C 213.109375 1272.007812 212.265625 1270.777344 211.453125 1269.527344 C 210.636719 1268.277344 209.855469 1267.007812 209.105469 1265.71875 C 208.355469 1264.429688 207.636719 1263.125 206.949219 1261.800781 C 206.261719 1260.476562 205.609375 1259.136719 204.992188 1257.777344 C 204.371094 1256.421875 203.785156 1255.050781 203.234375 1253.664062 C 202.683594 1252.277344 202.164062 1250.878906 201.683594 1249.46875 C 198.800781 1241.488281 196.117188 1233.445312 193.632812 1225.332031 C 191.144531 1217.222656 188.859375 1209.058594 186.769531 1200.835938 C 184.683594 1192.613281 182.796875 1184.34375 181.113281 1176.03125 C 179.433594 1167.714844 177.953125 1159.367188 176.679688 1150.980469 C 175.40625 1142.59375 174.335938 1134.179688 173.476562 1125.742188 C 172.613281 1117.300781 171.957031 1108.847656 171.507812 1100.375 C 171.058594 1091.90625 170.816406 1083.429688 170.785156 1074.945312 C 170.75 1066.460938 170.925781 1057.984375 171.304688 1049.507812 C 171.6875 1041.035156 172.273438 1032.574219 173.070312 1024.128906 C 173.863281 1015.683594 174.863281 1007.261719 176.070312 998.867188 C 177.277344 990.46875 178.691406 982.105469 180.308594 973.78125 C 181.921875 965.453125 183.742188 957.167969 185.765625 948.929688 C 187.785156 940.691406 190.007812 932.507812 192.429688 924.378906 C 194.851562 916.25 197.472656 908.183594 200.289062 900.179688 C 203.105469 892.179688 206.117188 884.25 209.320312 876.398438 C 212.523438 868.542969 215.917969 860.773438 219.503906 853.082031 C 223.089844 845.394531 226.859375 837.800781 230.816406 830.296875 C 234.773438 822.792969 238.910156 815.390625 243.230469 808.089844 C 247.550781 800.789062 252.046875 793.597656 256.714844 786.515625 C 261.386719 779.433594 266.226562 772.472656 271.238281 765.628906 C 276.25 758.785156 281.425781 752.066406 286.765625 745.476562 C 292.109375 738.882812 297.605469 732.425781 303.261719 726.105469 C 308.917969 719.785156 314.726562 713.605469 320.683594 707.566406 C 326.644531 701.527344 332.746094 695.640625 338.992188 689.902344 C 345.238281 684.160156 351.625 678.578125 358.144531 673.152344 C 364.664062 667.726562 371.3125 662.460938 378.089844 657.359375 C 384.867188 652.257812 391.765625 647.328125 398.785156 642.5625 C 405.804688 637.796875 412.933594 633.210938 420.179688 628.792969 C 427.421875 624.378906 434.769531 620.144531 442.21875 616.089844 C 449.671875 612.035156 457.214844 608.164062 464.855469 604.476562 C 472.496094 600.792969 480.222656 597.292969 488.035156 593.988281 C 495.84375 590.679688 503.734375 587.5625 511.695312 584.640625 C 513.777344 583.878906 515.882812 583.191406 518.015625 582.582031 C 520.148438 581.972656 522.300781 581.445312 524.472656 580.996094 C 526.640625 580.546875 528.828125 580.175781 531.027344 579.886719 C 533.222656 579.601562 535.429688 579.390625 537.644531 579.265625 C 539.855469 579.140625 542.070312 579.097656 544.289062 579.132812 C 546.503906 579.171875 548.71875 579.289062 550.925781 579.492188 C 553.132812 579.691406 555.332031 579.972656 557.519531 580.335938 C 559.707031 580.699219 561.878906 581.144531 564.03125 581.667969 C 566.1875 582.1875 568.320312 582.792969 570.429688 583.472656 C 572.539062 584.152344 574.621094 584.910156 576.675781 585.742188 C 578.730469 586.578125 580.75 587.484375 582.738281 588.46875 C 584.726562 589.453125 586.675781 590.507812 588.582031 591.632812 C 590.492188 592.761719 592.359375 593.957031 594.179688 595.21875 C 596 596.484375 597.773438 597.816406 599.496094 599.210938 C 601.21875 600.605469 602.890625 602.0625 604.503906 603.582031 C 606.121094 605.097656 607.679688 606.675781 609.175781 608.308594 C 610.675781 609.941406 612.113281 611.628906 613.488281 613.367188 C 614.863281 615.105469 616.171875 616.894531 617.417969 618.730469 C 618.660156 620.566406 619.832031 622.445312 620.9375 624.367188 C 622.042969 626.289062 623.074219 628.25 624.035156 630.25 C 624.996094 632.246094 625.878906 634.277344 626.6875 636.34375 C 627.5 638.40625 628.230469 640.496094 628.886719 642.613281 C 629.542969 644.734375 630.121094 646.871094 630.617188 649.03125 C 631.117188 651.191406 631.535156 653.367188 631.871094 655.558594 C 632.210938 657.75 632.464844 659.953125 632.640625 662.164062 C 632.816406 664.371094 632.910156 666.585938 632.921875 668.804688 C 632.933594 671.019531 632.863281 673.234375 632.710938 675.445312 C 632.558594 677.660156 632.328125 679.863281 632.011719 682.058594 C 631.699219 684.253906 631.304688 686.433594 630.828125 688.597656 C 630.355469 690.765625 629.800781 692.910156 629.167969 695.035156 C 628.535156 697.160156 627.824219 699.257812 627.035156 701.328125 C 626.246094 703.402344 625.382812 705.441406 624.445312 707.453125 Z M 624.253906 707.859375 " fill-opacity="1" fill-rule="nonzero"/></g></g></g><g clip-path="url(#8ecbaf27b6)"><path fill="#ff751f" d="M 802.914062 825.039062 L 697.277344 825.039062 C 669.105469 825.039062 651.5 794.546875 665.585938 770.152344 L 718.398438 678.664062 C 732.484375 654.269531 767.695312 654.269531 781.78125 678.664062 L 834.59375 770.152344 C 848.691406 794.539062 831.085938 825.039062 802.914062 825.039062 Z M 802.914062 825.039062 " fill-opacity="1" fill-rule="nonzero"/></g><g clip-path="url(#8b0120147c)"><g clip-path="url(#a3f7f72b53)"><g transform="matrix(1, 0, 0, 1, 658, 778)"><g clip-path="url(#7d7832da13)"><g clip-path="url(#29d826e545)"><g clip-path="url(#9bba5e4202)"><path fill="#ff751f" d="M 198.292969 67.75 L -14.621094 67.75 L -14.621094 0.375 L 198.292969 0.375 Z M 198.292969 67.75 " fill-opacity="1" fill-rule="nonzero"/></g></g></g></g></g></g><g clip-path="url(#7acf0af854)"><g clip-path="url(#26afc13284)"><g transform="matrix(1, 0, 0, 1, 827, 490)"><g clip-path="url(#3c712e37e2)"><g clip-path="url(#50305ec8c7)"><g clip-path="url(#e5cbae3c94)"><g clip-path="url(#6b23ff87d0)"><path fill="#ff751f" d="M 48.511719 217.769531 C 49.761719 220.410156 51.136719 222.988281 52.632812 225.496094 C 54.132812 228.007812 55.75 230.4375 57.484375 232.792969 C 59.21875 235.144531 61.066406 237.40625 63.019531 239.578125 C 64.976562 241.753906 67.03125 243.824219 69.191406 245.796875 C 71.347656 247.769531 73.59375 249.632812 75.933594 251.390625 C 78.269531 253.144531 80.6875 254.78125 83.1875 256.300781 C 85.683594 257.816406 88.25 259.210938 90.882812 260.480469 C 93.515625 261.75 96.203125 262.890625 98.949219 263.898438 C 104.148438 265.808594 109.304688 267.84375 114.40625 270.003906 C 119.507812 272.167969 124.554688 274.453125 129.546875 276.863281 C 134.539062 279.269531 139.46875 281.800781 144.335938 284.449219 C 149.203125 287.101562 154.003906 289.867188 158.734375 292.753906 C 163.464844 295.636719 168.125 298.636719 172.710938 301.75 C 177.292969 304.863281 181.800781 308.085938 186.226562 311.421875 C 190.65625 314.753906 195 318.195312 199.257812 321.738281 C 203.515625 325.285156 207.6875 328.933594 211.765625 332.683594 C 215.847656 336.4375 219.832031 340.285156 223.722656 344.230469 C 227.617188 348.175781 231.410156 352.214844 235.101562 356.34375 C 238.796875 360.476562 242.386719 364.695312 245.875 369 C 249.363281 373.308594 252.746094 377.699219 256.015625 382.171875 C 259.289062 386.644531 262.453125 391.191406 265.5 395.820312 C 268.550781 400.449219 271.488281 405.148438 274.304688 409.917969 C 277.125 414.6875 279.828125 419.527344 282.410156 424.429688 C 284.996094 429.332031 287.457031 434.296875 289.796875 439.320312 C 292.136719 444.34375 294.351562 449.421875 296.445312 454.554688 C 298.535156 459.683594 300.5 464.867188 302.339844 470.09375 C 304.175781 475.320312 305.886719 480.59375 307.46875 485.902344 C 309.046875 491.214844 310.496094 496.5625 311.816406 501.945312 C 313.132812 507.328125 314.320312 512.742188 315.371094 518.183594 C 316.425781 523.625 317.34375 529.085938 318.132812 534.574219 C 318.917969 540.058594 319.570312 545.5625 320.085938 551.078125 C 320.601562 556.597656 320.984375 562.125 321.230469 567.660156 C 321.476562 573.199219 321.585938 578.738281 321.5625 584.277344 C 321.535156 589.820312 321.375 595.359375 321.078125 600.894531 C 320.78125 606.425781 320.351562 611.949219 319.785156 617.464844 C 319.21875 622.976562 318.515625 628.472656 317.679688 633.953125 C 316.847656 639.429688 315.875 644.886719 314.773438 650.316406 C 313.671875 655.746094 312.4375 661.148438 311.070312 666.519531 C 309.703125 671.890625 308.203125 677.222656 306.578125 682.523438 C 304.949219 687.820312 303.191406 693.074219 301.304688 698.285156 C 300.777344 699.679688 300.28125 701.085938 299.820312 702.503906 C 299.359375 703.921875 298.933594 705.351562 298.542969 706.792969 C 298.152344 708.230469 297.796875 709.679688 297.480469 711.136719 C 297.164062 712.59375 296.878906 714.058594 296.636719 715.53125 C 296.390625 717.003906 296.179688 718.480469 296.007812 719.960938 C 295.835938 721.441406 295.703125 722.925781 295.601562 724.414062 C 295.503906 725.902344 295.441406 727.394531 295.417969 728.886719 C 295.394531 730.378906 295.40625 731.867188 295.457031 733.359375 C 295.503906 734.851562 295.59375 736.339844 295.714844 737.824219 C 295.839844 739.3125 296 740.792969 296.195312 742.273438 C 296.394531 743.75 296.625 745.222656 296.898438 746.691406 C 297.167969 748.160156 297.472656 749.617188 297.816406 751.070312 C 298.160156 752.519531 298.535156 753.964844 298.953125 755.398438 C 299.367188 756.828125 299.816406 758.25 300.300781 759.664062 C 300.785156 761.074219 301.304688 762.472656 301.859375 763.855469 C 302.410156 765.242188 303 766.609375 303.621094 767.96875 C 304.246094 769.324219 304.898438 770.664062 305.589844 771.984375 C 306.277344 773.308594 306.996094 774.613281 307.75 775.902344 C 308.503906 777.1875 309.289062 778.457031 310.105469 779.707031 C 310.921875 780.953125 311.769531 782.179688 312.644531 783.386719 C 313.523438 784.59375 314.429688 785.777344 315.367188 786.941406 C 316.300781 788.101562 317.265625 789.238281 318.257812 790.351562 C 319.25 791.464844 320.269531 792.554688 321.316406 793.617188 C 322.363281 794.679688 323.4375 795.714844 324.535156 796.726562 C 325.632812 797.734375 326.753906 798.71875 327.902344 799.671875 C 329.046875 800.625 330.21875 801.550781 331.410156 802.445312 C 332.601562 803.34375 333.816406 804.210938 335.050781 805.042969 C 336.289062 805.878906 337.542969 806.683594 338.816406 807.457031 C 340.09375 808.230469 341.386719 808.972656 342.699219 809.683594 C 344.011719 810.390625 345.339844 811.066406 346.6875 811.710938 C 348.03125 812.355469 349.394531 812.964844 350.769531 813.539062 C 352.144531 814.117188 353.535156 814.65625 354.9375 815.164062 C 356.339844 815.671875 357.757812 816.140625 359.183594 816.578125 C 360.609375 817.015625 362.046875 817.414062 363.492188 817.78125 C 364.9375 818.144531 366.390625 818.476562 367.855469 818.769531 C 369.316406 819.0625 370.785156 819.316406 372.261719 819.539062 C 373.738281 819.757812 375.21875 819.941406 376.703125 820.089844 C 378.1875 820.234375 379.671875 820.34375 381.164062 820.417969 C 382.652344 820.492188 384.144531 820.527344 385.636719 820.527344 C 387.128906 820.523438 388.617188 820.488281 390.109375 820.410156 C 391.597656 820.335938 393.085938 820.222656 394.570312 820.074219 C 396.054688 819.925781 397.53125 819.742188 399.007812 819.519531 C 400.484375 819.296875 401.953125 819.039062 403.414062 818.742188 C 404.875 818.445312 406.328125 818.117188 407.773438 817.746094 C 409.222656 817.378906 410.65625 816.976562 412.082031 816.539062 C 413.507812 816.101562 414.921875 815.625 416.324219 815.117188 C 417.726562 814.609375 419.113281 814.066406 420.492188 813.488281 C 421.867188 812.910156 423.226562 812.296875 424.570312 811.652344 C 425.914062 811.007812 427.242188 810.328125 428.554688 809.617188 C 429.867188 808.90625 431.160156 808.164062 432.433594 807.386719 C 433.707031 806.613281 434.960938 805.804688 436.195312 804.96875 C 437.429688 804.132812 438.644531 803.261719 439.835938 802.367188 C 441.027344 801.46875 442.195312 800.542969 443.339844 799.585938 C 444.484375 798.628906 445.605469 797.644531 446.703125 796.632812 C 447.796875 795.625 448.867188 794.585938 449.914062 793.519531 C 450.957031 792.457031 451.976562 791.367188 452.96875 790.25 C 453.957031 789.136719 454.921875 787.996094 455.855469 786.835938 C 456.789062 785.671875 457.695312 784.484375 458.570312 783.277344 C 459.445312 782.070312 460.289062 780.839844 461.105469 779.59375 C 461.917969 778.34375 462.703125 777.074219 463.453125 775.785156 C 464.203125 774.496094 464.921875 773.191406 465.609375 771.867188 C 466.296875 770.542969 466.949219 769.199219 467.570312 767.84375 C 468.191406 766.488281 468.777344 765.117188 469.328125 763.730469 C 469.878906 762.34375 470.398438 760.945312 470.878906 759.535156 C 473.765625 751.558594 476.449219 743.511719 478.941406 735.402344 C 481.429688 727.292969 483.722656 719.128906 485.8125 710.910156 C 487.902344 702.6875 489.789062 694.417969 491.476562 686.105469 C 493.160156 677.792969 494.644531 669.441406 495.921875 661.054688 C 497.199219 652.667969 498.269531 644.257812 499.136719 635.820312 C 500 627.378906 500.660156 618.925781 501.113281 610.453125 C 501.5625 601.984375 501.808594 593.507812 501.84375 585.023438 C 501.882812 576.539062 501.710938 568.0625 501.332031 559.585938 C 500.957031 551.113281 500.371094 542.652344 499.578125 534.207031 C 498.789062 525.761719 497.789062 517.339844 496.585938 508.941406 C 495.382812 500.546875 493.972656 492.183594 492.359375 483.855469 C 490.746094 475.527344 488.929688 467.242188 486.914062 459.003906 C 484.894531 450.765625 482.675781 442.578125 480.257812 434.449219 C 477.835938 426.320312 475.222656 418.25 472.40625 410.25 C 469.59375 402.246094 466.585938 394.316406 463.382812 386.460938 C 460.183594 378.605469 456.789062 370.835938 453.207031 363.144531 C 449.625 355.453125 445.859375 347.859375 441.902344 340.351562 C 437.949219 332.847656 433.816406 325.445312 429.5 318.140625 C 425.183594 310.839844 420.691406 303.644531 416.023438 296.5625 C 411.355469 289.480469 406.515625 282.515625 401.507812 275.667969 C 396.496094 268.824219 391.324219 262.101562 385.984375 255.511719 C 380.648438 248.917969 375.152344 242.457031 369.5 236.132812 C 363.84375 229.8125 358.039062 223.628906 352.082031 217.589844 C 346.125 211.546875 340.027344 205.65625 333.78125 199.917969 C 327.535156 194.175781 321.15625 188.589844 314.636719 183.160156 C 308.117188 177.730469 301.472656 172.464844 294.695312 167.359375 C 287.921875 162.257812 281.023438 157.320312 274.007812 152.554688 C 266.988281 147.789062 259.859375 143.199219 252.617188 138.78125 C 245.375 134.363281 238.03125 130.125 230.582031 126.066406 C 223.132812 122.007812 215.589844 118.136719 207.949219 114.445312 C 200.3125 110.757812 192.585938 107.257812 184.777344 103.945312 C 176.964844 100.636719 169.078125 97.515625 161.117188 94.59375 C 159.035156 93.828125 156.929688 93.140625 154.796875 92.53125 C 152.664062 91.921875 150.515625 91.390625 148.34375 90.941406 C 146.171875 90.492188 143.988281 90.121094 141.789062 89.832031 C 139.589844 89.542969 137.386719 89.335938 135.171875 89.207031 C 132.957031 89.082031 130.742188 89.035156 128.527344 89.074219 C 126.308594 89.109375 124.097656 89.226562 121.890625 89.429688 C 119.679688 89.628906 117.484375 89.910156 115.296875 90.269531 C 113.109375 90.632812 110.9375 91.074219 108.78125 91.597656 C 106.628906 92.121094 104.496094 92.71875 102.386719 93.398438 C 100.273438 94.078125 98.191406 94.835938 96.136719 95.667969 C 94.082031 96.503906 92.0625 97.410156 90.074219 98.394531 C 88.085938 99.375 86.136719 100.429688 84.226562 101.554688 C 82.316406 102.679688 80.453125 103.875 78.628906 105.140625 C 76.808594 106.402344 75.035156 107.734375 73.3125 109.128906 C 71.589844 110.523438 69.917969 111.976562 68.300781 113.496094 C 66.6875 115.015625 65.128906 116.589844 63.628906 118.222656 C 62.128906 119.855469 60.691406 121.539062 59.3125 123.277344 C 57.9375 125.019531 56.628906 126.804688 55.382812 128.640625 C 54.140625 130.476562 52.964844 132.355469 51.859375 134.277344 C 50.753906 136.199219 49.722656 138.160156 48.761719 140.15625 C 47.800781 142.15625 46.914062 144.1875 46.105469 146.25 C 45.292969 148.3125 44.558594 150.402344 43.902344 152.519531 C 43.246094 154.640625 42.667969 156.777344 42.171875 158.9375 C 41.671875 161.097656 41.253906 163.273438 40.914062 165.464844 C 40.578125 167.65625 40.320312 169.859375 40.144531 172.066406 C 39.96875 174.277344 39.875 176.492188 39.859375 178.707031 C 39.847656 180.925781 39.917969 183.140625 40.066406 185.351562 C 40.21875 187.566406 40.449219 189.769531 40.765625 191.960938 C 41.078125 194.15625 41.472656 196.339844 41.945312 198.503906 C 42.417969 200.667969 42.972656 202.816406 43.605469 204.941406 C 44.238281 207.066406 44.949219 209.164062 45.734375 211.238281 C 46.523438 213.308594 47.386719 215.351562 48.324219 217.359375 Z M 48.511719 217.769531 " fill-opacity="1" fill-rule="nonzero"/></g></g></g></g></g></g></g><g clip-path="url(#d1f5fb6986)"><g clip-path="url(#d3916c61b1)"><g transform="matrix(1, 0, 0, 1, 515, 614)"><g clip-path="url(#32a85c5f53)"><g clip-path="url(#bef101bb40)"><g clip-path="url(#fe81d473ae)"><path fill="#ffffff" d="M 0.613281 0.984375 L 79.144531 0.984375 L 79.144531 79.515625 L 0.613281 79.515625 Z M 0.613281 0.984375 " fill-opacity="1" fill-rule="nonzero"/></g></g></g></g></g></g><g clip-path="url(#681e2ac7f9)"><g clip-path="url(#82a9c215ba)"><g transform="matrix(1, 0, 0, 1, 905, 614)"><g clip-path="url(#1bac5b0673)"><g clip-path="url(#fc6a4ea4d8)"><g clip-path="url(#355d18f62a)"><path fill="#ffffff" d="M 0.851562 0.984375 L 79.382812 0.984375 L 79.382812 79.515625 L 0.851562 79.515625 Z M 0.851562 0.984375 " fill-opacity="1" fill-rule="nonzero"/></g></g></g></g></g></g><g clip-path="url(#164f384afa)"><g clip-path="url(#017f629281)"><g clip-path="url(#328981abf9)"><g transform="matrix(1, 0, 0, 1, 891, 1002)"><g clip-path="url(#70f3c531c7)"><g clip-path="url(#184fc5adf3)"><g clip-path="url(#9fa5ecc41e)"><g clip-path="url(#6263fa3dd8)"><path fill="#ffffff" d="M -39.925781 76.640625 L 128.078125 -40.109375 L 271.734375 166.613281 L 103.730469 283.363281 Z M -39.925781 76.640625 " fill-opacity="1" fill-rule="nonzero"/></g></g></g></g></g></g></g></g><g clip-path="url(#b184aab798)"><g clip-path="url(#f78bb7e6ad)"><g clip-path="url(#2a898eb723)"><g transform="matrix(1, 0, 0, 1, 263, 912)"><g clip-path="url(#a3b30a77a2)"><g clip-path="url(#ed949dfc7d)"><g clip-path="url(#72a5064ee7)"><g clip-path="url(#533c1ffec8)"><path fill="#ffffff" d="M 147.210938 -41.964844 L 291.875 102.699219 L 113.871094 280.703125 L -30.792969 136.039062 Z M 147.210938 -41.964844 " fill-opacity="1" fill-rule="nonzero"/></g></g></g></g></g></g></g></g><g clip-path="url(#c95a3b2931)"><g clip-path="url(#28aea8fd47)"><g clip-path="url(#8196b30088)"><g transform="matrix(1, 0, 0, 1, 373, 871)"><g clip-path="url(#94a5055b35)"><g clip-path="url(#68eb207312)"><g clip-path="url(#6458dae432)"><g clip-path="url(#0ef566ec44)"><path fill="#ff751f" d="M 143.621094 181.972656 L -0.00390625 38.34375 L 50.363281 -12.023438 L 193.992188 131.601562 Z M 143.621094 181.972656 " fill-opacity="1" fill-rule="nonzero"/></g></g></g></g></g></g></g></g><g clip-path="url(#5146402746)"><g clip-path="url(#5f9aa90986)"><g clip-path="url(#c66124ab1c)"><g transform="matrix(1, 0, 0, 1, 854, 961)"><g clip-path="url(#6887f3754e)"><g clip-path="url(#0457233e7d)"><g clip-path="url(#d16709f2a3)"><g clip-path="url(#c4487f86c8)"><path fill="#ff751f" d="M 180.496094 40.824219 L 28.664062 149.722656 L -9.527344 96.476562 L 142.308594 -12.421875 Z M 180.496094 40.824219 " fill-opacity="1" fill-rule="nonzero"/></g></g></g></g></g></g></g></g></svg>